<?xml version="1.0" encoding="utf-8"?>
<svg width="600" height="600" viewBox="0 0 600 600" version="1.1" xmlns="http://www.w3.org/2000/svg">
<path d="M135.7,96.5c66.5,49.9,138,151.1,164.3,205.5c26.3-54.3,97.8-155.5,164.3-205.5c48-36,125.7-63.9,125.7,24.8c0,17.7-10.2,148.8-16.1,170.1c-20.7,74-96.1,92.9-163.2,81.4c117.3,20,147.1,86.1,82.7,152.2c-122.4,125.6-175.9-31.5-189.6-71.8c-2.5-7.4-3.7-10.8-3.7-7.9c0-2.9-1.2,0.5-3.7,7.9c-13.7,40.3-67.2,197.4-189.6,71.8c-64.4-66.1-34.6-132.3,82.7-152.2c-67.1,11.4-142.6-7.4-163.2-81.4C20.2,270.1,10,139,10,121.3C10,32.6,87.7,60.5,135.7,96.5L135.7,96.5z" fill="#e84509"/>
</svg>
