<?xml version="1.0" encoding="utf-8"?>
<!-- Generator: Adobe Illustrator 26.5.1, SVG Export Plug-In . SVG Version: 6.00 Build 0)  -->
<svg version="1.0" xmlns="http://www.w3.org/2000/svg" xmlns:xlink="http://www.w3.org/1999/xlink" viewBox="-180 -90 360 180" style="fill:none; stroke:white;" xml:space="preserve">
<polygon points="104.38,-2.77 104.89,-0.71 103.97,0.43 105.32,1.94 106.66,2.05 106.24,3.51 106.46,5.67 109.43,6.69 111.68,6.48 114.99,7.1 113.56,7.52 116.12,8.24 116.84,7.94 117.88,7.95 119.51,7.94 122.3,8.25 123.42,7.94 124.42,8.11 125.83,8.01 126.72,8.15 125.96,9.15 123.73,10.72 124.25,9.2 124.44,8.54 106.78,7.31 105.51,6.7 105.31,5.68 101.08,1.67 99.24,-1.21 97.08,-3.8 95.52,-5.52 97.86,-5.45 102.12,-2.36 104.05,-1.32 100.56,-6.06 99.85,-6.58 98.89,-7.88 98.73,-9.57 98.42,-10.08 98.44,-10.87 98.42,-11.73 97.79,-16.45 94.81,-15.94 94.19,-18.62 93.88,-19.7 93.06,-20.4 91.62,-22.31 87.3,-20.36 85.53,-19.43 84.31,-18.2 82.88,-17.17 81.84,-16.34 80.9,-13.59 80.29,-11.91 79.5,-9.63 78.98,-9.13 76.17,-11.29 73.29,-20.78 69.39,-22.26 70.07,-22.73 68.05,-23.77 60.21,-25.22 55.21,-26.44 52.89,-27.59 51.06,-29.37 49.41,-27.98 51.34,-26.06 52.09,-24.84 54.45,-24.39 56.73,-26.44 60.33,-21.99 59.47,-20.6 58.47,-20.16 57.23,-18.35 55.49,-16.98 52.7,-15.63 45.85,-13.06 42.98,-16.91 41.18,-19.75 39.74,-20.97 38.64,-23.92 37.37,-25.41 36.85,-26.33 35.82,-27.77 34.2,-27.79 36.23,-23.18 37.9,-19.16 40.14,-15.63 40.94,-15.66 41.67,-14.72 44.05,-12.12 44.06,-11.38 48.01,-11.41 51.39,-12.02 49.86,-7.02 41.03,2.58 39.33,5.91 39.84,5.67 40.15,6.81 40.53,7.6 40.36,9.69 41.39,14.83 38,17.59 35.63,20.62 33.62,25.42 32.11,29.04 23.98,34.07 18.83,34.27 18.33,32.53 18.74,31.71 17.34,29.27 15.44,26.56 12.16,17.93 13.37,12.79 13.39,8.8 12.55,5.14 9.69,0.2 10.07,-3.71 6.53,-4.21 4.04,-6.47 -0.91,-5.04 -4.27,-5.03 -11.52,-7.18 -12.96,-9.4 -15.24,-11.1 -16.26,-13.96 -16.75,-14.91 -15.65,-18.93 -15.86,-19.95 -16.45,-21.43 -13.92,-26.44 -11.85,-28.08 -8.81,-32.54 -5.97,-34.58 -8.34,-36.94 -9.05,-38.69 -8.24,-41.35 -2.2,-47.43 -1.56,-48.68 -1.44,-49.59 1.56,-50.1 2.97,-51.13 5.45,-53.39 7.53,-53.61 9.09,-54.3 8.65,-56.8 10.36,-57.71 10.92,-56.8 11.36,-55.32 11.53,-55.77 13.15,-56.58 11.25,-59.13 7.13,-57.93 5.87,-62.25 9.14,-63.9 12.02,-65.1 14.3,-66.98 13.39,-67.91 15.97,-69.05 16.56,-68.85 17.2,-68.84 19.32,-70.06 21.96,-70.28 23.56,-70.88 24.18,-70.71 24.59,-71.1 25.23,-71.1 25.98,-71.09 27.33,-70.53 31.4,-70.07 33.88,-69.45 40.47,-66.14 34.31,-66.37 35.96,-64.34 38.3,-64.19 36.88,-64.84 40.56,-64.82 42.5,-66.56 44.67,-66.48 44.27,-67.13 43.65,-68.52 46.94,-67.6 46.38,-66.98 50.34,-68.01 55.14,-68.9 55.7,-68.62 59.3,-69.33 60.03,-68.43 58.89,-70.18 61.06,-69.86 66.4,-69.04 68.83,-68.87 67.84,-69.45 67.36,-70.07 66.99,-70.27 68.46,-71.71 72.77,-72.74 72.48,-71.41 74.12,-68.52 72.21,-66.77 75.11,-67.9 75.13,-68.96 73.91,-69.97 74.01,-71.92 74.53,-72.85 76.07,-72.74 76.74,-71.35 78.75,-72.54 79.36,-73.14 79.89,-72.42 81.44,-71.92 81.42,-72.33 86.39,-73.99 85.52,-74.42 88.86,-75.43 97.7,-76.04 100.95,-76.45 103.21,-77.64 106.51,-77.47 107.84,-77.48 108.17,-76.66 113.37,-74.84 113.67,-73.87 117.41,-73.77 122.61,-72.96 123.83,-73.77 126.25,-73.57 130.9,-70.89 133.51,-71.91 139.27,-71.71 139.99,-71.61 139.69,-72.54 147.09,-72.34 154.52,-71.09 160.08,-70.67 163.15,-69.66 168.78,-69.25 170.56,-68.84 170.82,-69.41 170.67,-70.09 183.54,-68.01 185.5,-67.27 185.82,-67.18 190.44,-65.95 188.25,-65.3 187.24,-64.1 181.68,-65.33 180.97,-66.05 180.84,-65.74 177.89,-64.4 179.94,-62.75 176.95,-62.45 171.84,-60.61 169.75,-60.39 165.5,-59.86 162.45,-58.22 163.65,-57.59 163.67,-56.65 162.44,-54.94 160.98,-54.44 159.89,-53.17 157.39,-50.93 156.06,-50.62 157.09,-57.47 158.83,-58.32 161.09,-59.77 164.3,-62.15 163.68,-61.72 160.68,-60.59 159.97,-61.03 160.28,-61.63 155.18,-60.19 155.34,-59.57 153.29,-58.96 151.85,-59.35 146.25,-58.95 137.11,-55.56 136.8,-54.63 138.27,-55.24 138.14,-53.9 140.84,-53.81 141.64,-52.86 142.09,-53.53 143.29,-54.29 144.52,-49.73 142.99,-48.05 143.81,-45.99 142.36,-45.78 142.44,-51.26 140.61,-48.74 135.12,-43.26 128.97,-40.01 129.02,-34.7 126.64,-35.61 126.81,-37.24 125.31,-37.93 124.68,-39.78 121.51,-39.54 121.98,-40.84 118.91,-38.79 118.32,-38.39 119.44,-38.03 120.95,-37.96 123.01,-37.54 121.81,-36.73 120.53,-35.89 120.53,-34.44 122.25,-31.93 121.79,-30.76 122.7,-30.43 120.05,-25.9 117.25,-23.34 115.39,-22.54 114.15,-22.31 111.49,-21.49 109.46,-18.2 110.35,-20.15 108.6,-21.49 109.73,-14.39 107.79,-10.38 106.95,-9.56 105.33,-8.55 104.68,-10.37 103.36,-10.95 102.97,-11.82 102.53,-12.34 101.09,-13.16 100.58,-13.47 99.69,-10.53 100.68,-8.44 103.97,-4.92 "/>
<polygon points="31.09,7.73 30.08,6.62 31.09,8.12 "/>
<polygon points="137.32,-54.52 137.71,-54.51 137.32,-54.22 "/>
<polygon points="108.29,-73.36 109.62,-73.96 107.35,-73.34 "/>
<polygon points="34.8,9.99 35,11.54 35.12,13.48 35.21,11.75 "/>
<polygon points="107.47,-52.78 110.04,-55.66 107.54,-52.95 "/>
<polygon points="50.65,-44.75 52.18,-45.56 53.53,-46.72 50.44,-46.4 47.57,-44.66 48.18,-43.6 50.74,-40.23 49.42,-38.04 54.35,-37.04 54.05,-38.99 53.12,-40.03 52.91,-42.59 "/>
<polygon points="17.3,-57.31 17.3,-56.38 15.55,-56.07 13.3,-55.85 12.85,-54.81 12.05,-54.22 15.34,-54.22 19.87,-54.44 21.4,-56.78 22.44,-57.97 22.85,-58.64 24.59,-59.36 29.39,-60.04 22.48,-59.98 22.14,-60.39 21.62,-61.94 22.32,-63.27 23.56,-63.9 25.38,-65.54 21.31,-63.69 17.71,-61.38 19.56,-59.88 "/>
<polygon points="25.74,-37.55 24.7,-37.83 25.02,-37.14 24.09,-37.24 23.3,-36.24 23.07,-36.63 22.01,-37.42 21,-37.85 20.49,-39.2 19.93,-41.61 16.59,-43.31 14.72,-44.75 13.51,-45.58 14.05,-43.72 15.35,-42.26 16.71,-41.54 18.83,-39.81 17.3,-40.07 17.39,-38.76 15.89,-37.89 14.56,-36.94 12.97,-37.93 16.27,-39.69 13.24,-41.3 10.64,-42.7 9.12,-44.3 6.49,-42.91 3.91,-42.38 0.42,-39.71 0.83,-38.69 -1.23,-37.05 -4.02,-36.51 -0.52,-35.89 5.87,-36.73 9.34,-37.13 11.44,-37.13 11.22,-35.91 11.94,-34.77 11.24,-34.48 11.45,-34.03 14.3,-33.03 16.07,-31.68 18.22,-31.17 22.96,-33.01 29.31,-31.18 32.4,-31.59 36.36,-36.7 35.1,-36.72 31.78,-36.74 30.52,-36.11 28.29,-35.92 28.33,-36.5 27.75,-37.2 27.07,-38.79 26.56,-39.79 26.05,-40.63 26.56,-40.5 25.03,-40.61 24.81,-40.02 23.27,-39.94 "/>
<polygon points="35.88,-44.92 33.79,-44.65 33.65,-45.79 31.91,-46.37 29.22,-43.41 29.59,-41.41 35.5,-42.06 41.06,-41.23 "/>
<polygon points="32.33,0.56 32.43,2.17 34.38,0.43 32.75,0 "/>
<polygon points="31.01,-61.42 31.85,-60.02 32.83,-60.19 "/>
<polygon points="110.87,-74.39 112.07,-74.39 110.87,-74.39 "/>
<polyline points="-179.22,84.1 -163.22,84.29 -164.4,84.08 -164.39,83.68 -173.44,82.44 -162.55,83.05 -158.85,83.06 -157.57,82.65 -152.64,82.05 -155.48,81.2 -148.87,80.46 -150.03,80.02 -148.39,79.76 -155.64,78.2 -157.49,77.18 -156.77,76.88 -154.7,76.88 -151.17,77.09 -149.39,76.26 -148.67,76.33 -148.78,75.89 -145.35,75.46 -143.39,75.24 -139.06,74.83 -133.91,74.21 -132.07,74 -131.35,74 -127.43,74.22 -116.17,73.59 -116.06,74.06 -114.09,73.59 -111.91,74.43 -111.17,73.91 -109.51,74.62 -105.09,74.83 -99.69,74.82 -100.91,73.85 -102.32,73.11 -101.2,72.75 -99.95,72.76 -91.31,72.76 -90,72.42 -87.59,72.36 -87.69,72.88 -86.98,72.77 -83.04,73.21 -80.18,72.97 -75.04,73.38 -74.07,72.56 -73.55,73.18 -73.59,72.97 -73.18,72.77 -71.74,73.18 -67.64,70.07 -66.7,68.83 -67.84,67.61 -67.47,66.39 -65.88,66.55 -65.05,65.77 -63.91,65.35 -62.92,63.92 -61.94,63.78 -60.02,63.31 -56.11,63.1 -55.89,62.69 -54.47,63.3 -56.89,64.37 -57.94,63.94 -59.22,64.33 -60.85,65.76 -61.64,66.01 -62.9,66.19 -64.04,67.5 -64.24,67.31 -64.64,67.44 -64.15,67.84 -63.14,68.05 -61.43,68.87 -60.45,70.66 -60.31,71.22 -59.3,73.06 -59.96,74.06 -61.2,74.77 -62.64,75.25 -76.26,76.67 -72.37,77.7 -78.61,77.82 -76.59,78.38 -81.41,78.73 -75.39,79.14 -75.51,79.67 -74.31,80.47 -61.55,81.2 -64.17,81.65 -59.81,81.83 -61.69,82.4 -56.89,82.43 -44.61,82.07 -39,80.59 -29.58,79.96 -31.79,79.55 -36.37,79.11 -35.8,78.21 -33.27,77.09 -24.79,75.44 -17.63,74.61 -14.96,73.8 -12.5,72.35 -11.58,71.52 -10.37,71.31 -7.2,71.09 -6.07,70.49 -5.04,70.9 -3.18,71.12 -2.38,69.89 -1.49,70.65 -0.44,70.92 1.56,70.9 3.1,70.19 3.82,70.5 4.78,69.88 6.12,70.25 6.27,69.89 8.56,70.08 12.08,70.5 14.33,70.09 16.59,69.27 17.15,69.9 19.06,69.89 19.78,70.39 21.52,70.49 23.34,70.49 25.65,70.7 32.65,69.68 33.65,68.43 35.91,69.24 38.42,69.47 40.47,68.44 43.75,67.64 49,67.3 50.13,66.6 50.99,65.99 57.7,66.19 57.33,66.78 60.22,67.01 70.2,67.52 70.33,68.46 69.78,70.19 68.08,72.96 69.49,72.15 70.33,71.55 71.19,71.48 72.78,70.27 77.14,69 80,67.81 85.77,66.37 86.57,66.78 86.98,66.4 90.08,66.58 96.51,66.18 99.15,65.99 100.51,65.84 100.69,66.07 101.23,65.97 101.36,65.77 101.66,65.23 108.17,66.18 116.08,66.46 117.07,66.59 120.32,66.62 122.23,66.58 127.39,66.59 129.41,66.79 130.81,65.98 135.37,65.97 144.93,67.07 145.47,67.22 146.9,67.42 151.43,68.05 154.09,68.06 158.81,69.03 160.9,69.69 162.07,69.95 168.5,70.89 170.55,70.94 171.2,71.71 170.49,71.87 169.64,73.18 166.69,73.39 165.69,74.35 164.38,74.62 163.87,74.32 163.05,74.87 162.97,75.23 163.26,76.17 166.04,77.89 166.59,77.42 167.73,77.1 169.17,77.5 167.06,77.89 167.96,77.79 167.57,78.43 163.38,78.53 162.38,78.57 162.39,78.74 161.99,78.94 161.38,79.23 161.16,79.55 161.34,79.77 164.54,82.03 189.92,84.09 "/>
<polygon points="-74.32,44.57 -72.87,44.24 -72.26,41.78 -72.67,42.77 -73.7,42.83 -72.68,39.33 -73.08,37.06 -71.23,33.63 -71.23,30.54 -70.82,28.61 -69.58,22.23 -75.75,14.04 -78.02,9.03 -80.22,6.45 -79.71,3.19 -80.29,0.83 -79.12,-1.11 -78.02,-2.17 -76.79,-3.48 -76.98,-6.77 -79.36,-8.32 -79.56,-7.3 -80.69,-7.59 -81.22,-8.12 -83.18,-9.15 -86.06,-11.92 -90.9,-14.09 -94.39,-16.14 -104.08,-19.23 -104.99,-21.8 -108.7,-25.71 -109.94,-27.65 -111.79,-29.02 -112.51,-31.17 -114.05,-31.29 -112.35,-29.22 -110.73,-26.71 -109.63,-24.58 -109.48,-22.99 -111.59,-25.26 -114.46,-27.78 -115.29,-30.65 -117.67,-33.24 -118.92,-33.85 -119.2,-34.36 -120.33,-35.49 -121.67,-37.24 -123.12,-39.72 -126.97,-50.1 -129.21,-53.01 -132.28,-54.64 -134.93,-56.89 -139.26,-59.56 -144.84,-60.39 -146.77,-60.48 -147.69,-59.8 -150.81,-58.95 -151.29,-60.39 -152.37,-58.88 -154.93,-57.5 -158.84,-55.47 -159.55,-55.04 -161.1,-55.04 -162.74,-54.43 -163.98,-54.84 -162.51,-55.07 -161.1,-55.87 -157.38,-57.51 -158.42,-58.34 -160.9,-58.34 -162.54,-59.77 -164.7,-60.39 -164.79,-61.01 -164.1,-62.76 -161.71,-63.69 -160.77,-64.43 -165.22,-64.51 -165.22,-66.16 -161.26,-66.2 -162.95,-66.98 -165.9,-68.29 -162.55,-69.24 -155.8,-71.3 -137.22,-69.24 -133.92,-69.45 -132.47,-69.46 -130.24,-70.06 -127.95,-69.87 -127.13,-70.68 -124.23,-70.23 -122.49,-69.76 -115.79,-69.25 -116.27,-70.47 -117.46,-71.3 -118.26,-72.54 -122.39,-70.89 -125.14,-72.02 -123.92,-74.3 -116.99,-74.39 -114.33,-73.35 -112.89,-72.78 -110.22,-72.54 -109.43,-72.96 -107.24,-72.21 -106.74,-73.37 -103.76,-73.45 -103.64,-71.72 -100.25,-69.51 -100.78,-69.64 -101.14,-69.61 -100.67,-69.24 -103.44,-68.62 -98,-68.2 -98.47,-68.63 -97.53,-69.81 -95.58,-69.7 -94.72,-72.06 -94.19,-74.18 -89.87,-73.56 -92.73,-71.51 -91.5,-70.69 -89.87,-69.65 -89.49,-68.42 -87.48,-67.89 -86.2,-67.64 -85.23,-68.11 -85.14,-69.86 -87.25,-73.77 -84.2,-73.36 -77.31,-73.77 -73.17,-71.91 -67.67,-70.69 -66.32,-68.42 -62.89,-67.39 -60.53,-66.47 -61.36,-65.64 -62.58,-65.28 -65.26,-65.84 -65.78,-64.93 -63.71,-63.27 -64.73,-62.65 -65.06,-61.73 -70.31,-62.66 -73.42,-64.34 -77.17,-64.1 -77.62,-64.6 -77.04,-65.13 -73.39,-65.54 -72.35,-68 -74.11,-67.9 -74,-68.42 -76.79,-67.7 -75,-68.67 -75.97,-69.04 -76.69,-69.04 -77.67,-70.07 -77.21,-69.56 -77.75,-69 -77.85,-68.49 -78.24,-68.52 -78.26,-69.32 -79.85,-69.45 -80.82,-69.44 -81.3,-68.12 -80.8,-66.78 -82.86,-66.15 -83.89,-65.95 -79.49,-63.78 -83.28,-63.48 -86.42,-63.48 -85.81,-64.63 -85.25,-65.87 -89.42,-63.51 -93.86,-59.1 -89.65,-57.3 -85.36,-55.69 -81.53,-55.08 -79.88,-52.86 -80.71,-52.43 -78.88,-51.63 -78.51,-52.13 -78.34,-51.96 -79.01,-54.77 -76.48,-57.9 -77.76,-58.96 -77.96,-60.77 -77.4,-62.52 -73.6,-62.86 -71.17,-61.84 -68.56,-60.92 -67.03,-58.54 -65.39,-58.96 -62.17,-58.85 -60.94,-57.45 -60.49,-56.39 -59.42,-55.29 -57.31,-55.02 -55.51,-53.64 -55.14,-51.82 -55.8,-50.22 -53.86,-49.69 -53.1,-48.77 -52.28,-48.35 -53.42,-46.62 -55.31,-46.85 -57.12,-47.43 -58.87,-47.73 -59.04,-50.32 -63.11,-49.91 -61.87,-49.07 -65.72,-50.1 -67.85,-48.87 -63.92,-49.28 -64.03,-48 -63.73,-46.6 -63.1,-46.61 -61,-45.82 -59.1,-46.1 -60.83,-44.96 -64.74,-43.51 -64.74,-44.97 -69.21,-43.74 -69.48,-42.08 -69.59,-41.35 -73.29,-40.32 -75.1,-37.3 -74.73,-35.4 -75.56,-34.81 -77.3,-33.85 -80.29,-29.58 -81.11,-25.93 -82.14,-29 -84.45,-29.52 -88.2,-30.33 -88.65,-28.94 -90.47,-29.11 -94.4,-28.9 -96.35,-25.51 -93.16,-18.41 -86.38,-21.7 -87.7,-16.17 -82.37,-14.99 -81.43,-9.38 -77.51,-9.56 -76.06,-8.94 -74.75,-10.88 -70.73,-12.65 -69.58,-11.55 -68.96,-11.72 -67.5,-10.66 -63.61,-10.88 -63,-11.1 -61.24,-10.79 -60.83,-11 -60.31,-10.1 -60.11,-9.64 -58.98,-8.53 -56.52,-6.28 -51.4,-4.85 -50.03,-2.48 -48.55,-0.09 -47.66,0.72 -45.22,0.94 -43.85,1.64 -42.5,2.18 -36.17,4.81 -34.37,8.84 -37.56,12.86 -40.3,21.13 -41.55,22.96 -44.78,23.98 -47.76,25.85 -48.31,28.72 -51.68,32.33 -57.57,34.1 -56.61,35.68 -56.42,37.48 -61.36,39.36 -63.98,41.9 -63.85,42.51 -63.61,42.72 -64.12,43.13 -64.85,44.86 -66.69,46.3 -65.99,48.28 -67.65,50.13 -66.19,53.83 -65.77,55.05 -67.25,55.1 -68.88,55.27 -71.46,54.11 -73.29,53.31 -74.11,52.7 -74.73,51.44 -74.64,50.73 -75.13,49.6 -74.95,48.19 -73.91,47.14 -74.92,46.83 -74.32,44.57 "/>
<polygon points="-79.56,-72.75 -79.65,-72.86 -79.66,-72.42 "/>
<polygon points="-113.02,-68.63 -114.44,-68.96 -114.1,-68.01 "/>
<polygon points="-107.88,-68.63 -111.95,-67.86 -109.06,-67.96 -108.1,-68.01 -107.48,-67.68 -106.98,-68.63 "/>
<polygon points="-90.58,-47.02 -89.44,-46.81 -87.23,-47.63 -87.39,-47.02 -84.08,-46.63 -85.23,-47.87 -88.31,-47.74 -88.16,-48.1 -88.62,-48.04 -90.29,-47.41 "/>
<polygon points="-82.25,-45.78 -82.55,-45.27 -81.73,-43.61 "/>
<polygon points="-120.74,-65.54 -117.46,-66.35 -119.53,-66.57 -121.21,-66.42 -120.51,-65.78 "/>
<polygon points="-93.78,-69.45 -94.5,-68.73 -95.22,-67.39 -93.34,-68.61 "/>
<polygon points="-75.76,-43.63 -76.27,-43.73 -78.72,-43.32 "/>
<polygon points="-85.43,-72.44 -84.95,-72.13 -84.65,-73.22 "/>
<polygon points="-88.32,-65.44 -87.91,-65.44 -88.32,-65.44 "/>
<polygon points="-122.91,-49.18 -122.49,-49.18 -122.91,-49.18 "/>
<polygon points="-68.55,52.29 -68.14,52.29 -68.55,52.29 "/>
<polygon points="-53.84,-70.42 -53.34,-70.96 -55.37,-71.61 -55.5,-72.72 -56.29,-73.97 -57.33,-74.8 -58.21,-75.62 -59.38,-75.82 -70.74,-76.89 -71.75,-77.28 -70.26,-77.64 -64.53,-79.34 -66.78,-79.95 -66.32,-80.66 -67.17,-80.61 -70.52,-79.53 -73.5,-78.61 -78.21,-76.95 -77.34,-76.45 -78.95,-75.63 -88.63,-76.04 -78.84,-75.12 -90.48,-74.39 -93.68,-75.93 -95.93,-74.97 -95.19,-76.23 -87,-77.89 -88.83,-77.9 -93.58,-79.12 -93.57,-81.39 -88.61,-80.75 -82.87,-82.4 -63.93,-82.84 -60.66,-81.99 -64.53,-80.78 -60.73,-81.43 -59.46,-82 -52.7,-81.92 -50.33,-82.01 -46.54,-82.33 -39.43,-83.25 -20.97,-82.33 -19.66,-81.39 -16.99,-81.8 -11.66,-81.15 -18.72,-79.43 -17.81,-77.27 -18.31,-75.92 -20.96,-76.35 -19.14,-74.9 -18.19,-74.42 -19.77,-73.52 -21.12,-73.15 -21.78,-71.78 -25.84,-68.42 -31.78,-67.81 -34.92,-65.94 -37.16,-65.34 -39.54,-64.62 -41.59,-62.34 -41.99,-61.12 -43.33,-59.58 -45.59,-60.58 -48.28,-61.23 -51.36,-63.9 -53.07,-66.01 -53.22,-66.78 -50.64,-69.13 -51.23,-69.73 -53.16,-69.04 "/>
<polygon points="-20.17,-78.3 -18.97,-77.97 -19.06,-78.89 "/>
<polygon points="-19.35,-79.84 -18.94,-79.84 -19.35,-79.84 "/>
<polygon points="132.1,11.33 133.27,11.24 134.76,11.84 137.32,12.15 137.22,13.49 135.91,14.65 138.63,16.54 139.69,16.58 141.68,15.21 142.24,11.56 144.41,14.12 145.77,16.27 147.53,19.26 149.47,20.11 149.68,21.2 151.07,22.17 151.72,23.5 153.27,25.01 153.78,24.69 153.38,30.49 151.33,34.16 150.49,35.85 149.95,37.6 145.88,38.6 143.61,38.8 140.31,37.37 136.81,35.92 138.76,35 137.39,35.14 137.82,33.68 136.49,34.8 135.05,33.35 134.3,32.43 129.23,31.77 124.35,33.37 118.5,34.9 115.9,33.15 115.06,29.01 113.24,25.34 113.52,25.6 114.39,25.82 113.65,23.68 114.36,21.51 114.51,21.99 114.92,21.58 116.62,20.69 118.5,20.07 121.87,18.74 123.64,16.78 123.98,15.96 124.56,15.31 126.14,14.06 127.33,13.49 129.92,13.56 130.43,11.85 131.97,11.39 "/>
<polygon points="134.85,2.22 136.09,2.68 135.41,1.51 137.63,1.55 146.38,4.74 148.23,6.2 147.43,7.03 148.27,7.73 149.54,8.75 150.29,9.67 148.34,10.2 142.35,9.17 138.04,8.34 138.56,6 134.14,3.82 134.01,4.11 132.99,3.52 133.2,2.49 131.04,1.35 130.52,0.24 131.73,0.25 131.91,0.52 134.34,0.53 "/>
<polygon points="119.62,-5.03 119.15,-4.46 118.37,-3.68 119.41,-1.01 117.98,0.6 116.74,3.71 115.6,4.02 113.93,3.38 112,3.14 110.35,1.44 109.33,0.42 111.09,-1.74 112.31,-3.17 115.13,-5.24 117.3,-7.5 118.51,-6.06 "/>
<polygon points="50.44,15.96 47.78,24.5 44.06,23.31 44.7,19.57 45.41,15.95 48.18,14.01 49.12,13.07 49.99,12.12 50.44,15.67 "/>
<polygon points="132.38,-33.23 130.54,-30.46 130.12,-31.79 129.91,-32.7 131.14,-34.34 136.06,-35.7 138.97,-37.65 138.73,-38.37 139.79,-38.67 140.59,-41.16 140.03,-42.08 139.68,-42.27 141.58,-43.35 142.36,-45.58 145.86,-44.14 149.26,-45.31 146.18,-43.41 144.45,-42.91 142.17,-42.48 140.98,-42.28 140.98,-42.28 142.46,-39.29 141.22,-35.79 139.71,-35.27 137.84,-34.66 135.79,-33.44 134.35,-33.23 133.14,-32.61 132.73,-33.68 "/>
<polygon points="-6.17,-56.48 -6.2,-57.64 -6.91,-56.91 -5.56,-58.32 -5.44,-57.53 -2.88,-59.07 -3.08,-57.82 -1.59,-57.72 -1.72,-56.04 0.42,-54.12 2.47,-52.48 1.68,-51.68 1.37,-50.75 -5.04,-49.89 -3.84,-51.54 -4.29,-52.85 -2.67,-53.62 -4.53,-55.15 -5.35,-55.25 -5.65,-55.47 "/>
<polygon points="21.41,-79.12 21.33,-77.28 21.78,-77.83 20.28,-78.31 16.79,-76.45 12.72,-78.3 12.7,-78.13 10.93,-78.84 11.12,-79.62 15.96,-79.54 16.15,-79.47 16.97,-80.15 22.31,-80.36 23.99,-80.16 27.69,-79.74 21.41,-79.12 "/>
<polygon points="11.85,-78.71 11.78,-78.77 11.95,-78.62 "/>
<polygon points="168.41,46.42 171.29,42.21 173.35,40.77 174.7,40.86 173.97,38.94 173.34,34.83 174.27,34.89 175.2,36.24 175.42,36.02 176.22,37.07 178.71,38.28 177.56,39.01 176.17,41.23 174.59,41.74 172.06,43.95 "/>
<polygon points="124.97,-10.18 124.04,-9.15 123.06,-10.23 122.1,-11.92 124.12,-10.88 124.55,-11.52 124.5,-12.39 124.56,-11.82 123.37,-12.18 123.4,-13.27 122.29,-13.78 121.78,-11.84 120.85,-13.67 120.23,-15.02 120.65,-18.1 121.71,-18.7 122.69,-17.51 122.71,-14.81 123.22,-14.5 124.45,-14.28 124.62,-12.68 126,-11.31 125.7,-11 126.81,-9.06 126.31,-6.88 126,-5.95 125.08,-5.85 123.43,-7.5 122.51,-6.98 122.81,-8.32 124.97,-9.22 124.97,-10.18 "/>
<polygon points="62.46,-76.27 69.08,-76.27 60.44,-74.6 57.33,-70.9 53.82,-71.08 52.6,-72.14 53.02,-72.94 55.04,-73.97 "/>
<polygon points="-113.64,-74.8 -115.43,-76.44 -117.45,-75.43 -117.25,-76.04 -120.75,-75.82 -119.55,-76.84 -116.19,-77.5 -114.98,-76.45 -113.42,-76.53 -109.79,-75.63 -109.7,-76.37 -107.67,-76.54 -105.34,-74.81 "/>
<polygon points="-21.64,-64.18 -23.42,-64.78 -22.12,-65.14 -23.54,-65.77 -23.16,-66.15 -21.28,-66.33 -20.04,-65.75 -16.2,-66.16 -13.31,-65.59 -17.6,-63.28 "/>
<polygon points="-44.57,77.5 -43.22,78.43 -43.34,80.17 -53.94,80.49 -50.08,79.35 "/>
<polygon points="123.94,1.76 122.99,1.17 122.12,2.1 123.22,3.82 123.65,4.45 122.6,5.27 121.86,4.13 121.12,2.63 121.06,5.77 119.98,5.67 119,3.1 120.5,-1.13 124.44,-1.13 124.69,-0.33 121.32,1.14 "/>
<polygon points="-70.55,70.2 -71.33,69.68 -71.52,69.24 -67.52,71.64 -72.47,72.05 -71.74,71.53 -74.44,71.14 -72.22,70.71 -70.68,70.68 "/>
<polygon points="92.65,-79.12 91.2,-80.05 96.29,-81.35 98.3,-80.57 100.34,-79.96 100.26,-78.82 97.1,-78.89 "/>
<polygon points="-5.35,-55.15 -5.55,-53.71 -5.55,-52.66 -9.53,-51.55 -9.65,-54.12 -7.7,-55.24 "/>
<polygon points="-79.98,-23.35 -76.65,-21.91 -73.51,-20.15 -76.58,-20.57 -80.57,-22.08 -83.96,-21.7 "/>
<polygon points="-98.51,-71.1 -101.8,-73.14 -100.57,-73.15 -97.03,-74.14 -96.22,-73.15 -95.73,-72.22 -98.51,-71.1 "/>
<polygon points="-61.86,80.79 -65.75,80.38 -65.91,79.9 -67.2,79.36 -69.07,79.55 -70.33,78.73 -65.88,78.2 -64.95,79.36 -59.33,79.35 -61.86,80.79 "/>
<polygon points="60.23,-81.12 61.24,-80.16 60.22,-79.74 56.62,-80.47 55.7,-79.95 52.71,-80.18 54.03,-80.35 56.09,-81.37 59.11,-81.51 60.5,-81.05 59.51,-80.85 "/>
<polygon points="145.44,-75.41 137.77,-76.02 141.1,-76 "/>
<polygon points="-103.96,-76.61 -101.5,-76.2 -97.32,-76.65 -100.16,-75.42 "/>
<polygon points="147.3,43.54 145.25,40.26 148.22,39.93 148.44,40.55 "/>
<polygon points="-69.27,-18.41 -70.3,-18.2 -71.03,-17.9 -73.91,-18.51 -72.28,-19.11 -72.58,-20.04 -71.53,-19.86 -69.92,-19.88 "/>
<polygon points="-99.94,-77.68 -101.91,-77.78 -100.56,-78.08 -104.07,-78.1 -104.87,-78.91 "/>
<polygon points="148.54,5.67 149.57,5.46 150.66,5.25 152.73,3.89 150.8,2.37 152.35,2.48 153.39,4.54 152.61,4.9 "/>
<polygon points="101.61,-78.09 99.69,-78.03 102.64,-79.53 "/>
<polygon points="47.19,-79.95 49.31,-80.57 50.87,-80.36 51.88,-79.85 47.19,-79.95 "/>
<polygon points="-109.32,-77.33 -112.58,-77.56 -112.45,-78.1 "/>
<polygon points="127.65,-1.02 128.97,-2.77 128.48,-2.05 128.9,-0.8 128.85,0.8 128.36,1.76 127.44,0.63 "/>
<polygon points="-153.26,-56.29 -153.96,-57.43 -151.2,-58.34 -151.32,-57.61 "/>
<polygon points="-58.78,50.95 -59.18,52.18 -60.45,51.94 "/>
<polygon points="140.03,-73.27 140.93,-73.57 140.74,-74.38 "/>
<polygon points="128.54,2.61 131.02,3.82 128.58,3.81 "/>
<polygon points="-130.92,-53.92 -130.11,-52.26 -131.97,-53.3 "/>
<polygon points="120.03,-11.41 120.14,-10.39 118.06,-8.73 118.28,-9.35 "/>
<polygon points="168.62,16.47 168.31,16.38 167.69,16.58 166.84,15.52 167.05,14.7 168.41,15.86 "/>
<polygon points="50.34,-68.83 48.59,-69.14 50.34,-68.83 "/>
<polygon points="-164.08,-54.22 -167.86,-52.82 -166.85,-53.4 -166.19,-54.01 "/>
<polygon points="-60.52,62.47 -56.93,61.65 -58.34,62.25 "/>
<polygon points="-65.36,-18 -66.69,-18.11 -65.36,-18 "/>
<polygon points="179.84,15.96 180.23,16.97 179.07,16.99 "/>
<polygon points="126.2,2.01 124.56,1.65 125.28,1.55 "/>
<polygon points="-98.51,-79.54 -99.33,-79.74 -98.51,-79.54 "/>
<polygon points="81.94,-75.31 82.46,-76.04 83.69,-75.83 "/>
<polygon points="-103.86,-74.8 -103.03,-75.01 -103.86,-74.8 "/>
<polygon points="33.45,-80.15 34.07,-80.36 31.95,-80.02 "/>
<polygon points="125.89,7.93 127.19,7.59 125.89,7.93 "/>
<polygon points="79.58,-80.56 80.88,-80.84 79.58,-80.56 "/>
<polygon points="76.58,-73.3 77.19,-73.47 77.21,-73.05 "/>
<polygon points="57.76,20.49 58.16,19.87 57.76,20.49 "/>
<polygon points="106.85,-77.37 107.26,-77.37 106.85,-77.37 "/>
<polygon points="116.12,-74.29 116.53,-74.29 116.12,-74.29 "/>
<polygon points="55.59,-68.94 56,-68.94 55.59,-68.94 "/>
<polygon points="-169.02,-56.59 -168.61,-56.59 -169.02,-56.59 "/>
<polygon points="115.5,6.8 115.91,6.8 115.5,6.8 "/>
<polygon points="-170.05,14.21 -169.64,14.21 -170.05,14.21 "/>
<polygon points="-5.35,15.86 -4.94,15.86 -5.35,15.86 "/>
<polygon points="169.23,52.29 169.65,52.29 169.23,52.29 "/>
<polygon points="-131.55,74 -131.41,73.83 -131.55,74 "/>
<polygon points="9.37,-38.78 8.85,-40.32 9.36,-41.05 9.99,-43.11 10.19,-41.06 "/>
<polygon points="26.26,-36.93 26.05,-36.73 25.82,-36.34 "/>
<polygon points="26.46,-37.55 26.86,-37.55 26.46,-37.55 "/>
<polygon points="24.91,-38.89 25.33,-38.89 24.91,-38.89 "/>
<polygon points="121.63,-25.2 120.27,-22.53 121.63,-25.2 "/>
<polygon points="-159.50,-21.92, -155.47,-19.63 -159.50,-21.92 "/>
<polygon points="80.40,-9.47 80.87,-6.17 80.40,-9.47 "/>
<polygon points="-13.65,-29.03 -15.57,-27.89 -17.91,-28.82 -13.65,-29.03 "/>
</svg>
