<?xml version="1.0" encoding="utf-8"?>
<svg width="560" height="560" viewBox="0 0 560 560" version="1.1" xmlns="http://www.w3.org/2000/svg">
    <rect width="560" height="560" fill="#e94721"/>
    <g fill="#fff">
      <path d="M233.77,151.48 L213.64,151.48 L206.63,163.61 L347.48,407.57 L381.63,407.57 L233.77,151.48 Z"/>
      <path d="M507.79,284.62 L433.87,151.48 L399.72,151.48 L473.65,284.62 L433.87,348.42 L320.16,151.48 L300.03,151.48 L293.02,163.62 L416.79,377.99 L416.79,378.00 L433.87,407.57 L433.87,407.56 L433.87,407.57 L450.94,378.00 L450.94,377.99 L507.79,284.62 L507.79,284.62 Z"/>
      <path d="M160.19,407.57 L234.07,284.68 L199.92,284.68 L143.12,378.00 L86.27,284.58 L160.20,151.48 L126.05,151.48 L52.12,284.58 L126.05,407.57 L160.19,407.57 L160.19,407.57 Z"/>
    </g>
</svg>
