<?xml version="1.0" encoding="utf-8"?>
<svg width="600" height="600" viewBox="0 0 600 600" version="1.1" xmlns="http://www.w3.org/2000/svg">
<path d="M591.1,123.4c-20.9,9.2-43.3,15.5-66.9,18.3c24-14.4,42.5-37.2,51.2-64.4c-22.5,13.3-47.4,23-74,28.2
	c-21.2-22.6-51.5-36.8-85-36.8c-64.3,0-116.4,52.1-116.4,116.5c0,9.1,1,18,3,26.5C206.2,206.9,120.4,160.6,63,90.1
	c-10,17.2-15.8,37.2-15.8,58.6c0,40.4,20.6,76.1,51.8,96.9c-19.1-0.6-37-5.9-52.8-14.6v1.5c0,56.4,40.1,103.5,93.4,114.2
	c-9.8,2.6-20.1,4-30.7,4c-7.5,0-14.8-0.7-21.9-2c14.8,46.2,57.8,79.9,108.8,80.9c-39.9,31.2-90.1,49.9-144.6,49.9
	c-9.4,0-18.7-0.5-27.8-1.6c51.5,33.1,112.8,52.3,178.5,52.3c214.2,0,331.4-177.4,331.4-331.3c0-5-0.1-10-0.4-15.1
	C555.7,167.3,575.5,146.8,591.1,123.4L591.1,123.4z" fill="#e84509"/>
</svg>
