<?xml version="1.0" encoding="UTF-8" standalone="no"?>
<!DOCTYPE svg PUBLIC "-//W3C//DTD SVG 1.1//EN" "http://www.w3.org/Graphics/SVG/1.1/DTD/svg11.dtd">
<svg width="560.00" height="560.00" viewBox="0.00 0.00 560.00 560.00" xmlns="http://www.w3.org/2000/svg" xmlns:xlink="http://www.w3.org/1999/xlink">
<g stroke-linecap="round" id="mark">
<rect width="560" height="560" fill="rgb(233,71,33)"/>
<path d="M233.77,151.48 L213.64,151.48 L206.63,163.61 L347.48,407.57 L381.63,407.57 L233.77,151.48 Z" fill="rgb(255,255,255)" stroke="none" stroke-width="3.60" stroke-opacity="1.00" stroke-linejoin="miter"/>
<path d="M507.79,284.62 L433.87,151.48 L399.72,151.48 L473.65,284.62 L433.87,348.42 L320.16,151.48 L300.03,151.48 L293.02,163.62 L416.79,377.99 L416.79,378.00 L433.87,407.57 L433.87,407.56 L433.87,407.57 L450.94,378.00 L450.94,377.99 L507.79,284.62 L507.79,284.62 Z" fill="rgb(255, 255, 255)" stroke="none" stroke-width="3.60" stroke-opacity="1.00" stroke-linejoin="miter"/>
<path d="M160.19,407.57 L234.07,284.68 L199.92,284.68 L143.12,378.00 L86.27,284.58 L160.20,151.48 L126.05,151.48 L52.12,284.58 L126.05,407.57 L160.19,407.57 L160.19,407.57 Z" fill="rgb(255, 255, 255)" stroke="none" stroke-width="3.60" stroke-opacity="1.00" stroke-linejoin="miter"/>
</g>
</svg>
